<svg xmlns="http://www.w3.org/2000/svg" viewBox="0 0 100 100" width="100" height="100">
  <!-- Background circle for better visibility -->
  <circle cx="50" cy="50" r="48" fill="#1f2937" stroke="#3b82f6" stroke-width="2"/>
  
  <!-- Padel racket handle -->
  <rect x="45" y="65" width="10" height="25" rx="5" fill="#8b4513" stroke="#654321" stroke-width="1"/>
  
  <!-- Padel racket head (rounded rectangle) -->
  <rect x="35" y="20" width="30" height="50" rx="15" fill="#3b82f6" stroke="#1e40af" stroke-width="2"/>
  
  <!-- Racket face background -->
  <rect x="37" y="22" width="26" height="46" rx="13" fill="#e5e7eb"/>
  
  <!-- Characteristic padel holes pattern -->
  <circle cx="44" cy="30" r="2" fill="#6b7280"/>
  <circle cx="50" cy="30" r="2" fill="#6b7280"/>
  <circle cx="56" cy="30" r="2" fill="#6b7280"/>
  
  <circle cx="44" cy="38" r="2" fill="#6b7280"/>
  <circle cx="50" cy="38" r="2" fill="#6b7280"/>
  <circle cx="56" cy="38" r="2" fill="#6b7280"/>
  
  <circle cx="44" cy="46" r="2" fill="#6b7280"/>
  <circle cx="50" cy="46" r="2" fill="#6b7280"/>
  <circle cx="56" cy="46" r="2" fill="#6b7280"/>
  
  <circle cx="44" cy="54" r="2" fill="#6b7280"/>
  <circle cx="50" cy="54" r="2" fill="#6b7280"/>
  <circle cx="56" cy="54" r="2" fill="#6b7280"/>
  
  <circle cx="44" cy="62" r="2" fill="#6b7280"/>
  <circle cx="50" cy="62" r="2" fill="#6b7280"/>
  <circle cx="56" cy="62" r="2" fill="#6b7280"/>
  
  <!-- Small padel ball -->
  <circle cx="70" cy="25" r="4" fill="#ffeb3b" stroke="#fbc02d" stroke-width="1"/>
  <!-- Ball characteristic line -->
  <path d="M68 23 Q70 25 72 27" stroke="#fbc02d" stroke-width="1" fill="none"/>
</svg>